<?xml version="1.0" encoding="UTF-8"?>
<svg width="179.56" height="152" clip-rule="evenodd" fill-rule="evenodd" image-rendering="optimizeQuality" shape-rendering="geometricPrecision" text-rendering="geometricPrecision" xmlns="http://www.w3.org/2000/svg">
 <g fill="#fff">
  <path transform="translate(-4.785 -61.137)" d="M50.5 63.5a29.2 29.2 0 0 1-1 9 31 31 0 0 0-2 2 6.85 6.85 0 0 0-4-1 88 88 0 0 1-14-5.5q8.275-3.52 17.5-5.5 2.077.021 3.5 1"/>
  <path transform="translate(-4.785 -61.137)" d="m53.5 64.5-2-1h-1q-1.423-.979-3.5-1-9.225 1.98-17.5 5.5a88 88 0 0 0 14 5.5q-2.919 3.015 0 5l-1.5 1a283 283 0 0 1-4.5-3q-5.864 2.44-11-1-1.388 1.71-2.5 0a8.4 8.4 0 0 0-.5 4q-3.08-.202-5 2 9.145-23.08 34-20 .94 1.376 1 3"/>
  <path transform="translate(-4.785 -61.137)" d="m55.5 71.5q2.147 1.92 2 5-2.147-1.92-2-5" opacity=".894"/>
  <path transform="translate(-4.785 -61.137)" d="M49.5 72.5a44.8 44.8 0 0 0-1 10q-5.62 1.288-11.5 4-1-4-2 0-1-4-2 0-2.21-3.623-5 0l-3-2a20 20 0 0 0-4.5 3 4.45 4.45 0 0 1-1.5-2q-1.514 2.288-1.5 5 .427 2.872-1 5h-1q-.684-7.66 3-14 1.92-2.202 5-2a8.4 8.4 0 0 1 .5-4q1.112 1.71 2.5 0 5.136 3.44 11 1a283 283 0 0 0 4.5 3l1.5-1q-2.919-1.985 0-5a6.85 6.85 0 0 1 4 1 31 31 0 0 1 2-2"/>
  <path transform="translate(-4.785 -61.137)" d="m57.5 76.5q1.857 2.571 2 6-2.712-2.127-2-6"/>
  <path transform="translate(-4.785 -61.137)" d="M48.5 82.5v6a57 57 0 0 0-9.5 2q-3.783.356-8-1-3.656 4.088-6-1-3 1-4 4-.538-4.567-2-1-.575-.835-1.5-1-.014-2.712 1.5-5a4.45 4.45 0 0 0 1.5 2 20 20 0 0 1 4.5-3l3 2q2.79-3.623 5 0 1-4 2 0 1-4 2 0 5.88-2.712 11.5-4"/>
  <path transform="translate(-4.785 -61.137)" d="M50.5 63.5h1v8q-2.244 9.157-2 19-1 0-1 1-6.937 3.573-15 4-3-2-6 0-2.295-.043-3.5-2-.78 1.523-2.5 2-2.816-.767-5 0 1.427-2.128 1-5 .925.165 1.5 1 1.462-3.567 2 1 1-3 4-4 2.344 5.088 6 1 4.217 1.356 8 1a57 57 0 0 1 9.5-2v-6q-.06-5.07 1-10a29.2 29.2 0 0 0 1-9"/>
  <path transform="translate(-4.785 -61.137)" d="m51.5 63.5 2 1a21.2 21.2 0 0 1 2 7q-.147 3.08 2 5-.712 3.873 2 6 .755 6.01.5 12-4.105 2.23-5 7a18 18 0 0 1-3.5 2q-1.383-16.175 0-32z"/>
  <path transform="translate(-4.785 -61.137)" d="M48.5 91.5a54 54 0 0 0-2 8 227 227 0 0 0-30 3 9.86 9.86 0 0 1-1-6v-1h1q2.184-.767 5 0 1.72-.477 2.5-2 1.205 1.957 3.5 2 3-2 6 0 8.063-.427 15-4"/>
  <path transform="translate(-4.785 -61.137)" d="M51.5 71.5q-1.383 15.825 0 32a18 18 0 0 0 3.5-2q.895-4.77 5-7 .255-5.99-.5-12 1.857 2.571 2 6-.561 6.22 3 11a12.9 12.9 0 0 1-.5 5q-3.06-1.384-6.5-1v4q-5.725-1.011-8.5 4a72.4 72.4 0 0 1-.5-12q.694-4.473 1-9-.245-9.843 2-19"/>
  <path transform="translate(-4.785 -61.137)" d="m61.5 88.5q3.152 4.945 4 11h-1q-3.561-4.78-3-11"/>
  <path transform="translate(-4.785 -61.137)" d="M15.5 96.5a9.86 9.86 0 0 0 1 6 227 227 0 0 1 30-3v3q-5.371.66-11.5 2-1-4-2 0-1-4-2 0-1-4-2 0l-1-2q-.78 1.523-2.5 2-9.105-3.4-10 7-1.465 4.18-1 9v3a23.3 23.3 0 0 1-3 6 414 414 0 0 1 4-33"/>
  <path transform="translate(-4.785 -61.137)" d="M46.5 102.5q-2.655 2.486-3 8-6.663-.114-11.5 4a4.93 4.93 0 0 1-.5-3q-8.15.63-16 0 .895-10.4 10-7 1.72-.477 2.5-2l1 2q1-4 2 0 1-4 2 0 1-4 2 0 6.129-1.34 11.5-2"/>
  <path transform="translate(-4.785 -61.137)" d="M48.5 99.5a72.4 72.4 0 0 0 .5 12q2.775-5.011 8.5-4v-4q3.44-.384 6.5 1 .74-2.451.5-5h1q.928 5.784 0 11-2.147 1.92-2 5a48.9 48.9 0 0 0-13.5 6q-3.43-4.297-2.5-10-.475-6.303 1-12"/>
  <path transform="translate(-4.785 -61.137)" d="M118.5 104.5q-2.406 1.18-2 4-.925-.166-1.5-1l-3 5q-8.664.442-17.5 0a25.5 25.5 0 0 1-7 5q11.243-16.746 31-13"/>
  <path transform="translate(-4.785 -61.137)" d="M49.5 90.5a105 105 0 0 1-1 9q-1.475 5.697-1 12-1.185 1.663-1.5 4a128 128 0 0 0-.5 16v1a216 216 0 0 0-2.5-17q-2.356-.375-4.5 2-4.089-2.461-6 2a110 110 0 0 1-6.5-2 55.6 55.6 0 0 1-11.5 3q-.465-4.82 1-9 7.85.63 16 0a4.93 4.93 0 0 0 .5 3q4.837-4.114 11.5-4 .345-5.514 3-8v-3a54 54 0 0 1 2-8q0-1 1-1"/>
  <path transform="translate(-4.785 -61.137)" d="M116.5 108.5v3q-1.203 5.317-4.5 10-2.093-1.972-3 1a3.94 3.94 0 0 0-2-1q-7.005 2.347-14 1-3.78 1.06-7.5 2.5a53.6 53.6 0 0 0-4 13.5q0 2-2 2v-1q1.43-7.371 3.5-15 1.539-4.108 4.5-7a25.5 25.5 0 0 0 7-5q8.836.442 17.5 0l3-5q.575.834 1.5 1"/>
  <path transform="translate(-4.785 -61.137)" d="M45.5 132.5v2l-2 7v-5a73 73 0 0 0-1-17q-1.388 1.712-2.5 0a4.93 4.93 0 0 0-.5 3q-2.975.175-5-2-6.008 3.282-12.5 1a14.8 14.8 0 0 0-5.5 3 44 44 0 0 0-2-1v-3a55.6 55.6 0 0 0 11.5-3q3.186 1.09 6.5 2 1.911-4.461 6-2 2.144-2.375 4.5-2a216 216 0 0 1 2.5 17"/>
  <path transform="translate(-4.785 -61.137)" d="M65.5 99.5a87 87 0 0 1 5 14 34.2 34.2 0 0 1-1 10q-2.038.76-3 3-1.922-9.648-5 0a34.3 34.3 0 0 1-8 1.5q-1.174 7.483-8 5.5v-2q2.862-4.142 7-7.5 5.962-3.989 13-4.5v-4h3a12.9 12.9 0 0 0-.5-5q-1.465 1.911-2.5 0 .928-5.216 0-11"/>
  <path transform="translate(-4.785 -61.137)" d="M65.5 110.5q1.035 1.911 2.5 0 .74 2.451.5 5h-3v4q-7.038.511-13 4.5-4.138 3.358-7 7.5-.25-8.016.5-16 .315-2.337 1.5-4-.93 5.703 2.5 10a48.9 48.9 0 0 1 13.5-6q-.147-3.08 2-5"/>
  <path transform="translate(-4.785 -61.137)" d="M70.5 113.5a298 298 0 0 1 9 26q-2.753-.933-3.5-4a81 81 0 0 1-2.5 3q-4.918.292-6-4.5a33.8 33.8 0 0 0 2-10.5 34.2 34.2 0 0 0 1-10"/>
  <path transform="translate(-4.785 -61.137)" d="m116.5 111.5-1 16h-1a39 39 0 0 0-2.5 5q-10.49-1.191-20.5 3a11.1 11.1 0 0 0-3.5-2l-6.5 5a53.6 53.6 0 0 1 4-13.5q3.72-1.44 7.5-2.5 6.995 1.347 14-1a3.94 3.94 0 0 1 2 1q.907-2.972 3-1 3.297-4.683 4.5-10"/>
  <path transform="translate(-4.785 -61.137)" d="M119.5 106.5q2.761 3.523 4 8l1.5 9q1.333-2.082 1.5.5a94 94 0 0 0-3.5 8.5 32 32 0 0 1-2.5-4q-4.186 10.267-4-1.5l1.5-19.5q.575-.834 1.5-1"/>
  <path transform="translate(-4.785 -61.137)" d="m129.5 125.5q3.132 2.754 4 7h-1a18.7 18.7 0 0 1-3-7" opacity=".996"/>
  <path transform="translate(-4.785 -61.137)" d="M43.5 136.5h-1q.478-3.375-1.5-6-2.862 3.61-6 0a9.3 9.3 0 0 0-2.5 2q-1.782-2.01-4.5-2a206 206 0 0 0-13.5 2q-2.444 4.164-2 9 .258 1.487-1 2v-14a23.3 23.3 0 0 0 3-6q.975.456 2 1a14.8 14.8 0 0 1 5.5-3q6.492 2.282 12.5-1 2.025 2.175 5 2a4.93 4.93 0 0 1 .5-3q1.112 1.712 2.5 0a73 73 0 0 1 1 17"/>
  <path transform="translate(-4.785 -61.137)" d="M69.5 123.5a33.8 33.8 0 0 1-2 10.5q1.082 4.792 6 4.5a24.4 24.4 0 0 0-3 5q-1.948-.885-2.5-3-.907 2.972-3 1a7919 7919 0 0 0-6.5 11l-3-2a25.9 25.9 0 0 0-1 10q-2.358-4.072-3-9-.41-2.926 2-4.5-1.13-2.23-2.5-.5.08-7.103-5.5-11v-2q6.826 1.983 8-5.5a34.3 34.3 0 0 0 8-1.5q3.078-9.648 5 0 .962-2.24 3-3"/>
  <path transform="translate(-4.785 -61.137)" d="M42.5 136.5a25 25 0 0 1-.5 7l-1-5a40 40 0 0 0-6-2q-6.623 2.739-14 3-3.704.24-6.5-2a71 71 0 0 1-2 4q-.444-4.836 2-9a206 206 0 0 1 13.5-2q2.718-.01 4.5 2a9.3 9.3 0 0 1 2.5-2q3.138 3.61 6 0 1.978 2.625 1.5 6"/>
  <path transform="translate(-4.785 -61.137)" d="M114.5 127.5a49.4 49.4 0 0 1-1 11 149 149 0 0 1-14 2q-2.825-.324-5-2-1.786 7.286-7.5 3-1.418.608-2 2-1.839-3.072-4.5-1l-1-2q2 0 2-2l6.5-5a11.1 11.1 0 0 1 3.5 2q10.01-4.191 20.5-3a39 39 0 0 1 2.5-5"/>
  <path transform="translate(-4.785 -61.137)" d="M42.5 136.5h1v5a330 330 0 0 1-4 36 69 69 0 0 0-2-18q1.875.116 2.5 2 .747-4.473.5-9v-3q1.034-4.394-1-9-1.948.885-2.5 3-2.014-1.07-4 1-6.905-1.719-14 0-2.574-.372-4.5-2-1.428 2.318-1 5a28.5 28.5 0 0 0-3 7 41.6 41.6 0 0 1-3 11 248 248 0 0 1 2-18l2-4q1.258-.513 1-2a71 71 0 0 0 2-4q2.796 2.24 6.5 2 7.377-.261 14-3a40 40 0 0 1 6 2l1 5q.745-3.465.5-7"/>
  <path transform="translate(-4.785 -61.137)" d="M118.5 104.5q1.257.513 1 2-.925.166-1.5 1l-1.5 19.5q-.186 11.767 4 1.5a32 32 0 0 0 2.5 4 94 94 0 0 1 3.5-8.5q-.167-2.582-1.5-.5l-1.5-9q4.137 4.767 6 11a18.7 18.7 0 0 0 3 7q1.115 5.174-4 5 .257 4.946-2 1-1.83 1.817-3.5 0l-3 7q-1.967-3.237-5-1 .326-8.448.5-17l1-16v-3q-.406-2.82 2-4"/>
  <path transform="translate(-4.785 -61.137)" d="M11.5 132.5v11l-2 4q.36-7.791 2-15" opacity=".937"/>
  <path transform="translate(-4.785 -61.137)" d="M45.5 135.5q5.58 3.897 5.5 11 1.37-1.73 2.5.5-2.41 1.574-2 4.5-3.85-7.538-6-16"/>
  <path transform="translate(-4.785 -61.137)" d="M79.5 139.5v1l1 2v5q-1.453 3.161-1 7 .356 1.936-1 3a41 41 0 0 0-.5-9q-4.892 2.285-10 1-2.376.732-3.5 3a6.85 6.85 0 0 0-4-1q-.416 4.422 1 8.5-3.226 2.66-3 7 .625 3.747 1 7.5-3.28-6.593-5-14a25.9 25.9 0 0 1 1-10l3 2a7919 7919 0 0 1 6.5-11q2.093 1.972 3-1 .552 2.115 2.5 3a24.4 24.4 0 0 1 3-5 81 81 0 0 0 2.5-3q.747 3.067 3.5 4"/>
  <path transform="translate(-4.785 -61.137)" d="M40.5 149.5q-1.437-.679-2.5-2a136 136 0 0 1-19.5 3 19.1 19.1 0 0 1-5-3q-.428-2.682 1-5 1.926 1.628 4.5 2 7.095-1.719 14 0 1.986-2.07 4-1 .552-2.115 2.5-3 2.034 4.606 1 9"/>
  <path transform="translate(-4.785 -61.137)" d="M113.5 138.5v7q-1 0-1 1a183 183 0 0 0-27.5 3 39 39 0 0 0-4.5-2v-5q2.661-2.072 4.5 1 .582-1.392 2-2 5.714 4.286 7.5-3 2.175 1.676 5 2a149 149 0 0 0 14-2"/>
  <path transform="translate(-4.785 -61.137)" d="M173.5 139.5a218 218 0 0 1-14 1.5 85 85 0 0 0-7 8.5l-2 5q.685-15.19 16-17 3.87.336 7 2"/>
  <path transform="translate(-4.785 -61.137)" d="M173.5 139.5q1.487-.257 2 1 1.163 3.288 2.5 6-9.085.219-17.5 5a7.3 7.3 0 0 1-2 3 32 32 0 0 0-2.5-4q-1.718 1.776-3.5 0v-1a85 85 0 0 1 7-8.5q7.047-.526 14-1.5"/>
  <path transform="translate(-4.785 -61.137)" d="M112.5 146.5q-.332 4.169 1 8a1813 1813 0 0 0-4 28 300 300 0 0 0-1-13q2.147-1.92 2-5v-7q-.384-3.438 1-6.5a670 670 0 0 0-32 3.5q-.453-3.839 1-7a39 39 0 0 1 4.5 2 183 183 0 0 1 27.5-3"/>
  <path transform="translate(-4.785 -61.137)" d="M114.5 127.5h1a927 927 0 0 1-.5 17q3.033-2.237 5 1l3-7q1.67 1.817 3.5 0 2.257 3.946 2-1 5.115.175 4-5h1q.814 7.432 4 14a14.7 14.7 0 0 0-3.5 3l-1-5a347 347 0 0 0-5 5q-.473-3.97-3.5-2a4.46 4.46 0 0 1-1.5-2 65 65 0 0 0-5.5 8 44 44 0 0 0-2-1q-2.766-2.668-2-7v-7a49.4 49.4 0 0 0 1-11"/>
  <path transform="translate(-4.785 -61.137)" d="M137.5 146.5v4a20.1 20.1 0 0 0-6 1.5q1.32 2.034 1 4.5h3v3q-.925-.166-1.5-1a15.3 15.3 0 0 1-1.5 4.5q-3.56 2.066-7 1.5a2027 2027 0 0 1 5.5-5q-.228-3.029-1.5-6-5.178-.078-6.5 5a29 29 0 0 1-2.5-5q-3.692 4.384-5-1 .975.456 2 1a65 65 0 0 1 5.5-8 4.46 4.46 0 0 0 1.5 2q3.027-1.97 3.5 2a347 347 0 0 1 5-5l1 5a14.7 14.7 0 0 1 3.5-3"/>
  <path transform="translate(-4.785 -61.137)" d="M13.5 147.5a19.1 19.1 0 0 0 5 3 136 136 0 0 0 19.5-3q1.063 1.321 2.5 2v3a134 134 0 0 0-23.5 3q-1.517-1.255-3.5-1a8.44 8.44 0 0 1-.5 4q-.3-2.73-2.5-4a28.5 28.5 0 0 1 3-7"/>
  <path transform="translate(-4.785 -61.137)" d="M133.5 132.5a172.3 172.3 0 0 1 14 27 20.5 20.5 0 0 0-8-3v3h-4v-3h-3q.32-2.466-1-4.5a20.1 20.1 0 0 1 6-1.5v-4q-3.186-6.568-4-14"/>
  <path transform="translate(-4.785 -61.137)" d="m175.5 140.5c3 1 5 3 6 6l1 6q-15.613 1.723-30 7v-9q1.782 1.776 3.5 0a32 32 0 0 1 2.5 4 7.3 7.3 0 0 0 2-3q8.415-4.781 17.5-5-1.337-2.712-2.5-6"/>
  <path transform="translate(-4.785 -61.137)" d="M40.5 152.5a41 41 0 0 1-.5 9q-.625-1.884-2.5-2-.925.166-1.5 1l-1-4q-2.573 4.837-6 1a423 423 0 0 0-17.5 3q1.008 3.54-2.5 6a8.44 8.44 0 0 0-.5 4v8q-1.47-4.687-1-10v-3a41.6 41.6 0 0 0 3-11q2.2 1.27 2.5 4a8.44 8.44 0 0 0 .5-4q1.983-.255 3.5 1a134 134 0 0 1 23.5-3"/>
  <path transform="translate(-4.785 -61.137)" d="M78.5 157.5v5h-1q.329-1.763-1-3a15 15 0 0 0-3.5 3l-2.5-3a100 100 0 0 0-2 5.5q-2.32.5-4-1.5-6.257 7.5-3 17-1.857-2.571-2-6-.375-3.753-1-7.5-.227-4.34 3-7-1.416-4.078-1-8.5a6.85 6.85 0 0 1 4 1q1.124-2.268 3.5-3 5.108 1.285 10-1 .747 4.473.5 9"/>
  <path transform="translate(-4.785 -61.137)" d="M110.5 157.5a502 502 0 0 0-27 3.5q-4.25.25-4.5 4.5a4.93 4.93 0 0 1-.5-3v-5q1.356-1.064 1-3a670 670 0 0 1 32-3.5q-1.384 3.062-1 6.5"/>
  <path transform="translate(-4.785 -61.137)" d="M152.5 149.5v10q14.387-5.277 30-7a18.5 18.5 0 0 1-.5 6l-1-2-2.5 3-2-2a20 20 0 0 0-4 3.5 257 257 0 0 1-22 4.5v-11z"/>
  <path transform="translate(-4.785 -61.137)" d="M37.5 159.5a69 69 0 0 1 2 18v2h-1q.506-6.182-1-10a184 184 0 0 1-3-2 116.7 116.7 0 0 1-21 1q.329 1.763-1 3a6.85 6.85 0 0 0-4-1 8.44 8.44 0 0 1 .5-4q3.508-2.46 2.5-6a423 423 0 0 1 17.5-3q3.427 3.837 6-1l1 4q.575-.834 1.5-1"/>
  <path transform="translate(-4.785 -61.137)" d="M147.5 159.5q1 0 1 1a20.7 20.7 0 0 1 1 5q-3.165-1.429-3.5-5l-1.5 3a98.7 98.7 0 0 0-18 10.5q2.36 2.74 2.5 6.5 1.114-3.217 2.5-.5-1.852 4.152 1 7.5 1.401 1.602 1 4a118 118 0 0 1-10-18q-1.375-3.757 0-7 .09.814 1 1 1.329-1.237 1-3 3.44.566 7-1.5a15.3 15.3 0 0 0 1.5-4.5q.575.834 1.5 1h4v-3q4.32.66 8 3"/>
  <path transform="translate(-4.785 -61.137)" d="M115.5 158.5q2.322.481 2 3h3v4q1.936-.356 3 1-1.375 3.243 0 7a161 161 0 0 1-8-15"/>
  <path transform="translate(-4.785 -61.137)" d="M113.5 145.5q-.766 4.332 2 7 1.308 5.384 5 1a29 29 0 0 0 2.5 5q1.322-5.078 6.5-5 1.272 2.971 1.5 6a2027 2027 0 0 0-5.5 5q.329 1.763-1 3-.91-.186-1-1-1.064-1.356-3-1v-4h-3q.322-2.519-2-3-1.76-1.52-2-4-1.332-3.831-1-8 0-1 1-1"/>
  <path transform="translate(-4.785 -61.137)" d="M110.5 157.5v7q-1.494.129-2.5-1a24.9 24.9 0 0 1-8.5 2.5q-10.488 1.5-21 2.5v6q0 1-1 1v-13h1a4.93 4.93 0 0 0 .5 3q.25-4.25 4.5-4.5a502 502 0 0 1 27-3.5"/>
  <path transform="translate(-4.785 -61.137)" d="M150.5 154.5v15a108.4 108.4 0 0 0 24-6.5q1.654-4.454 4-.5 1.174-2.682 4-3a47 47 0 0 1-2 9 290 290 0 0 1-29 8.5q-2.462 1.693-3 4.5h-1v-6q1.621-4.69 2-10a20.7 20.7 0 0 0-1-5z"/>
  <path transform="translate(-4.785 -61.137)" d="M149.5 165.5q-.379 5.31-2 10a44 44 0 0 1-2-3q-7.687 4.61-12.5 12a4.93 4.93 0 0 0-.5 3q-2.852-3.348-1-7.5-1.386-2.717-2.5.5-.14-3.76-2.5-6.5a98.7 98.7 0 0 1 18-10.5l1.5-3q.335 3.571 3.5 5"/>
  <path transform="translate(-4.785 -61.137)" d="M181.5 146.5q4.394 5.866 2 13h-1q-2.826.318-4 3-2.346-3.954-4 .5a108.4 108.4 0 0 1-24 6.5v-4a257 257 0 0 0 22-4.5 20 20 0 0 1 4-3.5l2 2 2.5-3 1 2q.743-2.96.5-6z"/>
  <path transform="translate(-4.785 -61.137)" d="M37.5 169.5a18.4 18.4 0 0 1-.5 6 7.3 7.3 0 0 1-2-3 9.5 9.5 0 0 1-1.5 2.5q-9.87.28-19.5 1.5-1.665-2.305-4.5-2v3h-1v-7a6.85 6.85 0 0 1 4 1q1.329-1.237 1-3 10.587.446 21-1 1.527 1.039 3 2"/>
  <path transform="translate(-4.785 -61.137)" d="M77.5 162.5v13l-2 3q.19-4.118-3.5-6-2.262 3.507-6.5 3 .43 2.666 2 5-.486 3.103-2.5 1a8.44 8.44 0 0 0-.5 4 11.45 11.45 0 0 0-3-5q-3.257-9.5 3-17 1.68 2 4 1.5a100 100 0 0 1 2-5.5l2.5 3a15 15 0 0 1 3.5-3q1.329 1.237 1 3"/>
  <path transform="translate(-4.785 -61.137)" d="M110.5 164.5q.147 3.08-2 5-1.385-1.205-3-.5a20.5 20.5 0 0 1-2.5 4.5q-3.41-3.588-6.5 0-8.506-1.077-17 1h-1v-6q10.512-1 21-2.5a24.9 24.9 0 0 0 8.5-2.5q1.006 1.129 2.5 1"/>
  <path transform="translate(-4.785 -61.137)" d="M38.5 179.5a97 97 0 0 0-1 16q.705 7.91-5 13a57.4 57.4 0 0 1 2-9q1.152-1.144 1.5-3a61 61 0 0 0 .5-11 8.44 8.44 0 0 0-.5-4l-1 1-2.5-6a43 43 0 0 0-11.5 3q-2.94-.712-6.5 0-3.21-.084-5-2v-3q2.835-.305 4.5 2a200 200 0 0 1 19.5-1.5 9.5 9.5 0 0 0 1.5-2.5 7.3 7.3 0 0 0 2 3q.743-2.96.5-6 1.506 3.818 1 10"/>
  <path transform="translate(-4.785 -61.137)" d="M108.5 169.5q.641 6.486 1 13 .561 6.22-3 11v-6q1.426-2.128 1-5 1.923-1.812 0-4a24.8 24.8 0 0 0-8-5l-1 4q-6.016-5.295-13-1l-5-.5q-.835-.575-1-1.5 8.494-2.077 17-1 3.09-3.588 6.5 0a20.5 20.5 0 0 0 2.5-4.5q1.615-.705 3 .5"/>
  <path transform="translate(-4.785 -61.137)" d="M180.5 168.5v7a41 41 0 0 0-9 .5q-8.865 3.284-17.5 6.5a4.46 4.46 0 0 0-1.5-2l-3 2q-.91-.186-1-1 .538-2.807 3-4.5a290 290 0 0 0 29-8.5"/>
  <path transform="translate(-4.785 -61.137)" d="M107.5 182.5q-1.494-.129-2.5 1-1.647-2.201-4.5-2.5 1.816-1.34 0-2.5a10.9 10.9 0 0 0-4.5 5q-1.108-1.611-3-2a51.8 51.8 0 0 1-14.5 2.5q-2.305 1.665-2 4.5-.264 4.84-2 9 1.035-9.465 1-19l2-3q1 0 1-1h1q.165.925 1 1.5l5 .5q6.984-4.295 13 1l1-4a24.8 24.8 0 0 1 8 5q1.923 2.188 0 4"/>
  <path transform="translate(-4.785 -61.137)" d="M180.5 175.5a9.2 9.2 0 0 1-2 4.5q-10.775 1.008-20 6.5l-2-1a29 29 0 0 1-2.5 5q-2.684-2.594-6.5-2a105 105 0 0 0-1 9h-1a332 332 0 0 1 2-16h1q.09.814 1 1l3-2a4.46 4.46 0 0 1 1.5 2q8.635-3.216 17.5-6.5a41 41 0 0 1 9-.5"/>
  <path transform="translate(-4.785 -61.137)" d="M36.5 185.5a31 31 0 0 0-2 2l-2-3a166 166 0 0 1-18 2.5q-1.375 5.761-4 1a4.93 4.93 0 0 0-3-.5 41.7 41.7 0 0 0 1-9v-1h1q1.79 1.916 5 2 3.56-.712 6.5 0a43 43 0 0 1 11.5-3l2.5 6 1-1a8.44 8.44 0 0 1 .5 4"/>
  <path transform="translate(-4.785 -61.137)" d="M147.5 175.5v6a332 332 0 0 0-2 16l-1 10h-3a16.3 16.3 0 0 1-2-5q-4.137-4.767-6-11 .401-2.398-1-4a4.93 4.93 0 0 1 .5-3q4.813-7.39 12.5-12a44 44 0 0 0 2 3"/>
  <path transform="translate(-4.785 -61.137)" d="M7.5 168.5q-.47 5.313 1 10a41.7 41.7 0 0 1-1 9q-1.47 4.687-1 10-.24 2.549.5 5 2.222 1.456 2.5 4l3 4q-5.422-2.281-7.5-8-.98-17.365 2.5-34"/>
  <path transform="translate(-4.785 -61.137)" d="M75.5 178.5q.035 9.535-1 19-1.475 5.697-1 12h-2v-1q.734-6.676-4-11-.237-6.512-3-12a8.44 8.44 0 0 1 .5-4q2.014 2.103 2.5-1-1.57-2.334-2-5 4.238.507 6.5-3 3.69 1.882 3.5 6"/>
  <path transform="translate(-4.785 -61.137)" d="M107.5 182.5q.426 2.872-1 5-.29-5.923-1.5 0-1.206-1.956-3.5-2l-5 3q-9.878-2.216-18.5 3-.348-1.856-1.5-3-.305-2.835 2-4.5 7.45-.219 14.5-2.5 1.892.389 3 2a10.9 10.9 0 0 1 4.5-5q1.816 1.16 0 2.5 2.853.299 4.5 2.5 1.006-1.129 2.5-1"/>
  <path transform="translate(-4.785 -61.137)" d="m61.5 180.5a11.45 11.45 0 0 1 3 5q2.763 5.488 3 12-4.154-7.952-6-17"/>
  <path transform="translate(-4.785 -61.137)" d="M36.5 185.5a61 61 0 0 1-.5 11q-.348 1.856-1.5 3-1.352-1.185-2-3 1.2-2.312 1-5-10.585 3.659-22 3.5-1.905 1.35-3 3.5a44 44 0 0 0-2-1q-.47-5.313 1-10a4.93 4.93 0 0 1 3 .5q2.625 4.761 4-1a166 166 0 0 0 18-2.5l2 3a31 31 0 0 1 2-2"/>
  <path transform="translate(-4.785 -61.137)" d="M139.5 202.5a44.4 44.4 0 0 0-2-10 19 19 0 0 0 3-5q4.264 3.055 4 8.5a52 52 0 0 1-1.5 10.5q-.086-3.615-3.5-4"/>
  <path transform="translate(-4.785 -61.137)" d="M38.5 179.5h1q-.252 8.3-2 16a97 97 0 0 1 1-16" opacity=".702"/>
  <path transform="translate(-4.785 -61.137)" d="M182.5 159.5h1a207 207 0 0 1-2 19q-2.358 4.072-3 9-16.815 4.52-32 10 .306-4.527 1-9 3.816-.594 6.5 2a29 29 0 0 0 2.5-5l2 1q9.225-5.492 20-6.5a9.2 9.2 0 0 0 2-4.5v-7a47 47 0 0 0 2-9"/>
  <path transform="translate(-4.785 -61.137)" d="M106.5 187.5v3a214 214 0 0 1-30 5q-2.475 7.242-2 15-1 0-1-1-.475-6.303 1-12 1.736-4.16 2-9 1.152 1.144 1.5 3 8.622-5.216 18.5-3l5-3q2.294.044 3.5 2 1.21-5.923 1.5 0"/>
  <path transform="translate(-4.785 -61.137)" d="M106.5 190.5v3q-4.851 3.183-6 9-.5 1.5-2 2-2.987-.258-5 2-.746-1.654-1-3-2.576 1.752-2 5-2.95.359-5.5-1-4.34 3.975-10.5 3-.475-7.758 2-15a214 214 0 0 0 30-5"/>
  <path transform="translate(-4.785 -61.137)" d="M32.5 196.5q.648 1.815 2 3a57.4 57.4 0 0 0-2 9q-1.74 2.625-5 3a76 76 0 0 1-15-1l-3-4q1.875-.116 2.5-2l2.5 3a34.2 34.2 0 0 0 1.5-8q4.048-.302 8.5 1a20 20 0 0 0 3.5-4q1.948.699 4.5 0"/>
  <path transform="translate(-4.785 -61.137)" d="m106.5 193.5q-1.834 5.324-6 9 1.149-5.817 6-9" opacity=".996"/>
  <path transform="translate(-4.785 -61.137)" d="M178.5 187.5v3q-4.575-.865-6 3.5-4.212.029-7 3-1.926 1.026-3.5-.5-.299 2.853-2.5 4.5a27.4 27.4 0 0 1-12 2.5 18.5 18.5 0 0 1-.5 6q-1.517 1.255-3.5 1-1.352-1.185-2-3h3l1-10h1q15.185-5.48 32-10"/>
  <path transform="translate(-4.785 -61.137)" d="M32.5 196.5q-2.552.699-4.5 0a20 20 0 0 1-3.5 4q-4.452-1.302-8.5-1a34.2 34.2 0 0 1-1.5 8l-2.5-3q-.625 1.884-2.5 2-.278-2.544-2.5-4a12.9 12.9 0 0 1-.5-5q.975.456 2 1 1.095-2.15 3-3.5 11.416.159 22-3.5.2 2.688-1 5"/>
  <path transform="translate(-4.785 -61.137)" d="M181.5 178.5q-2.349 30.847-33 34-3.21-.084-5-2 1.983.255 3.5-1 .743-2.96.5-6a27.4 27.4 0 0 0 12-2.5q2.201-1.647 2.5-4.5 1.574 1.526 3.5.5 2.788-2.971 7-3 1.425-4.365 6-3.5v-3q.642-4.928 3-9"/>
  <path transform="translate(-4.785 -61.137)" d="m67.5 197.5q4.734 4.324 4 11-3.152-4.945-4-11"/>
  <path transform="translate(-4.785 -61.137)" d="M98.5 204.5q-11.07 9.774-26 7.5-1.128-1.006-1-2.5h2q0 1 1 1 6.16.975 10.5-3 2.55 1.359 5.5 1-.576-3.248 2-5 .254 1.346 1 3 2.013-2.258 5-2"/>
  <path transform="translate(-4.785 -61.137)" d="m12.5 210.5a76 76 0 0 0 15 1q-7.692 3.716-15-1" opacity=".992"/>
 </g>
</svg>
