<svg width="50" height="50" viewBox="0 0 50 53.439" class="css-1j8o68f"
    xmlns="http://www.w3.org/2000/svg">
    <defs>
        <clipPath clipPathUnits="userSpaceOnUse" id="a">
            <path d="M-1.098 2.236h71.51v19.86h-71.51z"></path>
        </clipPath>
        <clipPath clipPathUnits="userSpaceOnUse" id="c">
            <path d="M107.118 3.871h26.828v17.63h-26.828z"></path>
        </clipPath>
        <clipPath clipPathUnits="userSpaceOnUse" id="b">
            <path d="M70.509 3.488h33.254v17.83H70.509z"></path>
        </clipPath>
    </defs>
    <g fill="#fff">
        <path
            d="m4.943 16.065 15.514-8.96a3.65 3.65 0 0 0 1.385.272 3.696 3.696 0 0 0 3.689-3.688A3.696 3.696 0 0 0 21.842 0a3.692 3.692 0 0 0-3.689 3.672L2.128 12.927A4.282 4.282 0 0 0 0 16.621v19.703c0 1.515.817 2.934 2.134 3.694l18.045 10.419c.25.142.534.221.817.221.284 0 .568-.074.818-.221.51-.295.817-.829.817-1.419v-.527c0-.863-.466-1.663-1.209-2.094L4.942 36.88a1.659 1.659 0 0 1-.822-1.424V17.49c0-.585.318-1.135.823-1.425zM19.629 2.826a2.375 2.375 0 0 1 2.582-1.487c.147.023.29.057.42.108a2.38 2.38 0 1 1-3.002 1.379zM47.9 14.056 29.843 3.632a1.648 1.648 0 0 0-.828-.221c-.29 0-.573.079-.829.22-.516.302-.828.835-.828 1.437V5.8c0 .715.386 1.379 1.004 1.736l16.724 9.653c.488.278.788.8.788 1.362v18.045c0 .562-.3 1.084-.788 1.362L29.968 46.47a3.655 3.655 0 0 0-1.68-.408A3.696 3.696 0 0 0 24.6 49.75a3.696 3.696 0 0 0 3.689 3.689 3.695 3.695 0 0 0 3.648-3.127l15.969-9.221A4.197 4.197 0 0 0 50 37.465V17.682a4.207 4.207 0 0 0-2.1-3.626zM29.934 51.47a2.358 2.358 0 0 1-1.651.664h-.074a2.382 2.382 0 1 1 .443-4.733 2.383 2.383 0 0 1 2.014 2.355 2.35 2.35 0 0 1-.732 1.714z"></path>
        <path
            d="M35.745 29.616 7.797 37.028c-.488.13-.953-.784-.68-1.34l.64-1.322c.511-1.055 1.289-1.759 2.208-2.003l27.744-7.354c.488-.131.953.783.68 1.339l-.749 1.555c-.442.902-1.106 1.51-1.895 1.713zM35.95 36.33l-17.303 4.585c-.3.08-.686-.851-.567-1.374l.29-1.225c.226-.982.663-1.595 1.236-1.742l17.178-4.552c.3-.079.686.852.567 1.374l-.335 1.441c-.204.84-.579 1.362-1.067 1.493zM31.472 18.693 14.17 23.278c-.301.08-.687-.851-.568-1.374l.29-1.225c.227-.982.664-1.595 1.237-1.742l17.177-4.552c.301-.079.687.852.568 1.374l-.335 1.441c-.21.84-.579 1.362-1.067 1.493zM40.773 22.075 12.83 29.48c-.488.13-.954-.783-.681-1.339l.64-1.322c.512-1.056 1.289-1.76 2.208-2.003l27.744-7.355c.488-.13.953.783.681 1.34l-.75 1.554c-.442.908-1.106 1.51-1.9 1.72z"></path>
    </g>
</svg>